<svg width="1200" height="630" viewBox="0 0 1200 630" xmlns="http://www.w3.org/2000/svg">
  <defs>
    <!-- Cyber background gradient -->
    <linearGradient id="bgGradient" x1="0%" y1="0%" x2="100%" y2="100%">
      <stop offset="0%" style="stop-color:#000a1a;stop-opacity:1" />
      <stop offset="25%" style="stop-color:#0f0f2e;stop-opacity:1" />
      <stop offset="50%" style="stop-color:#1a0033;stop-opacity:1" />
      <stop offset="75%" style="stop-color:#001122;stop-opacity:1" />
      <stop offset="100%" style="stop-color:#000000;stop-opacity:1" />
    </linearGradient>
    
    <!-- Cyber grid pattern -->
    <pattern id="cyberGrid" width="50" height="50" patternUnits="userSpaceOnUse">
      <path d="M 50 0 L 0 0 0 50" fill="none" stroke="#00ffaa" stroke-width="0.3" opacity="0.4"/>
      <path d="M 25 0 L 25 50 M 0 25 L 50 25" fill="none" stroke="#0088ff" stroke-width="0.2" opacity="0.2"/>
    </pattern>
    
    <!-- Glowing circuit lines -->
    <pattern id="circuits" width="200" height="200" patternUnits="userSpaceOnUse">
      <g stroke="#00ffaa" stroke-width="1" fill="none" opacity="0.3">
        <path d="M0,50 L50,50 L50,100 L150,100 L150,150 L200,150"/>
        <path d="M200,0 L150,0 L150,50 L100,50 L100,100 L0,100"/>
        <circle cx="50" cy="50" r="3" fill="#00ffaa"/>
        <circle cx="150" cy="100" r="2" fill="#0088ff"/>
        <circle cx="100" cy="150" r="2" fill="#ff0088"/>
      </g>
    </pattern>
    
    <!-- Neon glow effect -->
    <filter id="neonGlow">
      <feGaussianBlur stdDeviation="3" result="coloredBlur"/>
      <feMerge> 
        <feMergeNode in="coloredBlur"/>
        <feMergeNode in="SourceGraphic"/>
      </feMerge>
    </filter>
    
    <!-- Terminal window gradient -->
    <linearGradient id="terminalBg" x1="0%" y1="0%" x2="0%" y2="100%">
      <stop offset="0%" style="stop-color:#0f172a;stop-opacity:0.95" />
      <stop offset="100%" style="stop-color:#1e293b;stop-opacity:0.95" />
    </linearGradient>
    
    <!-- Welcome box gradient -->
    <linearGradient id="welcomeBox" x1="0%" y1="0%" x2="0%" y2="100%">
      <stop offset="0%" style="stop-color:#1e293b;stop-opacity:0.8" />
      <stop offset="100%" style="stop-color:#0f172a;stop-opacity:0.8" />
    </linearGradient>
    
    <!-- Glow effect for terminal -->
    <filter id="terminalGlow">
      <feGaussianBlur stdDeviation="2" result="coloredBlur"/>
      <feMerge> 
        <feMergeNode in="coloredBlur"/>
        <feMergeNode in="SourceGraphic"/>
      </feMerge>
    </filter>
  </defs>
  
  <!-- Cyber background -->
  <rect width="1200" height="630" fill="url(#bgGradient)"/>
  
  <!-- Cyber grid overlay -->
  <rect width="1200" height="630" fill="url(#cyberGrid)"/>
  
  <!-- Circuit pattern overlay -->
  <rect width="1200" height="630" fill="url(#circuits)" opacity="0.6"/>
  
  <!-- Animated scanning lines -->
  <rect width="1200" height="2" fill="#00ffaa" opacity="0.8" filter="url(#neonGlow)">
    <animateTransform attributeName="transform" type="translate" values="0,-100; 0,730" dur="4s" repeatCount="indefinite"/>
  </rect>
  <rect width="1200" height="1" fill="#0088ff" opacity="0.6" filter="url(#neonGlow)">
    <animateTransform attributeName="transform" type="translate" values="0,-50; 0,680" dur="6s" repeatCount="indefinite"/>
  </rect>
  
  <!-- Glowing corner accents -->
  <g filter="url(#neonGlow)">
    <path d="M 0 0 L 100 0 L 100 2 L 2 2 L 2 100 L 0 100 Z" fill="#00ffaa" opacity="0.6"/>
    <path d="M 1200 0 L 1100 0 L 1100 2 L 1198 2 L 1198 100 L 1200 100 Z" fill="#0088ff" opacity="0.6"/>
    <path d="M 0 630 L 100 630 L 100 628 L 2 628 L 2 530 L 0 530 Z" fill="#ff0088" opacity="0.6"/>
    <path d="M 1200 630 L 1100 630 L 1100 628 L 1198 628 L 1198 530 L 1200 530 Z" fill="#00ffaa" opacity="0.6"/>
  </g>
  
  <!-- Terminal Window Container -->
  <g transform="translate(200, 80)">
    <!-- Terminal window background -->
    <rect width="800" height="470" rx="12" fill="url(#terminalBg)" stroke="#475569" stroke-width="1" filter="url(#terminalGlow)"/>
    
    <!-- Terminal header with traffic lights -->
    <rect width="800" height="32" rx="12" fill="#0f172a" stroke="#475569" stroke-width="1"/>
    <rect y="32" width="800" height="1" fill="#374151"/>
    
    <!-- macOS-style traffic light buttons -->
    <circle cx="24" cy="16" r="6" fill="#ef4444"/>
    <circle cx="48" cy="16" r="6" fill="#f59e0b"/>
    <circle cx="72" cy="16" r="6" fill="#10b981"/>
    
    <!-- Terminal title -->
    <text x="400" y="22" font-family="SF Pro, -apple-system, sans-serif" font-size="12" fill="#64748b" text-anchor="middle" font-weight="500">Terminal 1</text>
    
    <!-- Welcome box border -->
    <rect x="24" y="56" width="400" height="120" rx="4" fill="none" stroke="#fbbf24" stroke-width="1"/>
    
    <!-- Welcome content -->
    <g font-family="SF Mono, Consolas, monospace" font-size="13" fill="#fbbf24">
      <text x="30" y="76" font-weight="bold">Welcome to CLI Portfolio!</text>
      <text x="30" y="100" font-size="11" fill="#e2e8f0">Try these commands to explore:</text>
      <text x="30" y="118" font-size="11" fill="#e2e8f0">• whoami    - View detailed profile</text>
      <text x="30" y="134" font-size="11" fill="#e2e8f0">• projects  - See my projects</text>
      <text x="30" y="150" font-size="11" fill="#e2e8f0">• help      - All available commands</text>
    </g>
    
    <!-- Command prompt area -->
    <g font-family="SF Mono, Consolas, monospace" font-size="12">
      <!-- Time and commands info -->
      <text x="24" y="200" fill="#64748b" font-size="10">13:30:19 | Commands: 0</text>
      
      <!-- Current path and prompt -->
      <text x="24" y="220" fill="#7dd3fc" font-weight="500">~</text>
      <text x="32" y="220" fill="#fbbf24" font-weight="bold"> $ </text>
      
      <!-- Blinking cursor -->
      <rect x="48" y="210" width="8" height="14" fill="#fbbf24" opacity="0.8">
        <animate attributeName="opacity" values="0;1;0" dur="1.2s" repeatCount="indefinite"/>
      </rect>
    </g>
  </g>
  
  
  <!-- Main title -->
  <text x="600" y="560" font-family="SF Pro, -apple-system, sans-serif" font-size="32" fill="#e2e8f0" text-anchor="middle" font-weight="700">Kentaro Morishita</text>
  <text x="600" y="590" font-family="SF Pro, -apple-system, sans-serif" font-size="18" fill="#94a3b8" text-anchor="middle" font-weight="400">CLI Portfolio - Interactive Developer Experience</text>
  
  <!-- Cyber decorative elements -->
  <g filter="url(#neonGlow)">
    <!-- Vertical cyber lines -->
    <rect x="150" y="50" width="2" height="530" fill="#00ffaa" opacity="0.4"/>
    <rect x="1048" y="50" width="2" height="530" fill="#0088ff" opacity="0.4"/>
    
    <!-- Data stream indicators -->
    <g opacity="0.6">
      <rect x="145" y="100" width="12" height="3" fill="#00ffaa">
        <animate attributeName="opacity" values="0;1;0" dur="2s" repeatCount="indefinite"/>
      </rect>
      <rect x="1043" y="200" width="12" height="3" fill="#0088ff">
        <animate attributeName="opacity" values="0;1;0" dur="3s" repeatCount="indefinite"/>
      </rect>
      <rect x="145" y="400" width="12" height="3" fill="#ff0088">
        <animate attributeName="opacity" values="0;1;0" dur="2.5s" repeatCount="indefinite"/>
      </rect>
    </g>
  </g>
</svg>